<svg width="193" height="55" viewBox="0 0 193 55" fill="none" xmlns="http://www.w3.org/2000/svg">
<g style="mix-blend-mode:multiply">
<path d="M17.8018 15.3459C16.1067 13.6508 16.1067 10.9026 17.8018 9.20756C19.4968 7.5125 22.2451 7.5125 23.9401 9.20756L33.1477 18.4151L27.0093 24.5534L17.8018 15.3459Z" fill="#4EAD43"/>
</g>
<g style="mix-blend-mode:multiply" opacity="0.5">
<path d="M30.0785 9.20754C31.7736 7.51248 34.5218 7.51248 36.2169 9.20754C37.9119 10.9026 37.9119 13.6508 36.2169 15.3459L27.0094 24.5534L20.871 18.4151L30.0785 9.20754Z" fill="#4EAD43"/>
</g>
<g style="mix-blend-mode:multiply" opacity="0.85">
<path d="M38.6716 17.8012C40.3667 16.1061 43.1149 16.1061 44.81 17.8012C46.505 19.4963 46.505 22.2445 44.81 23.9396L35.6025 33.1471L29.4641 27.0087L38.6716 17.8012Z" fill="#4EAD43"/>
</g>
<g style="mix-blend-mode:multiply">
<path d="M44.8102 30.0779C46.5053 31.773 46.5053 34.5212 44.8102 36.2163C43.1151 37.9114 40.3669 37.9114 38.6719 36.2163L29.4643 27.0088L35.6027 20.8704L44.8102 30.0779Z" fill="#4EAD43"/>
</g>
<g style="mix-blend-mode:multiply" opacity="0.85">
<path d="M15.346 36.2164C13.6509 37.9114 10.9027 37.9114 9.20762 36.2164C7.51256 34.5213 7.51256 31.7731 9.20762 30.078L18.4151 20.8705L24.5535 27.0088L15.346 36.2164Z" fill="#4EAD43"/>
</g>
<g style="mix-blend-mode:multiply">
<path d="M9.20747 23.9397C7.51241 22.2446 7.51241 19.4964 9.20747 17.8013C10.9025 16.1062 13.6508 16.1062 15.3458 17.8013L24.5533 27.0088L18.415 33.1472L9.20747 23.9397Z" fill="#4EAD43"/>
</g>
<g style="mix-blend-mode:multiply">
<path d="M36.2165 38.6716C37.9116 40.3666 37.9116 43.1149 36.2165 44.8099C34.5215 46.505 31.7733 46.505 30.0782 44.8099L20.8707 35.6024L27.009 29.4641L36.2165 38.6716Z" fill="#4EAD43"/>
</g>
<g style="mix-blend-mode:multiply" opacity="0.5">
<path d="M23.9398 44.8099C22.2448 46.505 19.4965 46.505 17.8015 44.8099C16.1064 43.1149 16.1064 40.3666 17.8015 38.6716L27.009 29.464L33.1474 35.6024L23.9398 44.8099Z" fill="#4EAD43"/>
</g>
<path d="M75.2002 43.8526C84.0442 43.8526 88.5772 37.9757 89.7772 33.1228L84.0442 31.3865C83.1998 34.3249 80.5777 37.8421 75.2002 37.8421C70.1338 37.8421 65.423 34.1468 65.423 27.424C65.423 20.256 70.4005 16.8724 75.1113 16.8724C80.5777 16.8724 83.022 20.2115 83.7775 23.239L89.555 21.4136C88.3106 16.2936 83.822 10.951 75.1113 10.951C66.6673 10.951 59.0678 17.3621 59.0678 27.424C59.0678 37.486 66.4007 43.8526 75.2002 43.8526Z" fill="#282828"/>
<path d="M99.9058 43.1847V10.951H93.995V43.1847H99.9058Z" fill="#282828"/>
<path d="M116.056 38.4654C113.167 38.4654 110.5 36.3284 110.5 32.2324C110.5 28.0919 113.167 25.9993 116.056 25.9993C118.944 25.9993 121.611 28.0919 121.611 32.2324C121.611 36.3729 118.944 38.4654 116.056 38.4654ZM116.056 20.6122C109.523 20.6122 104.59 25.4651 104.59 32.2324C104.59 38.9552 109.523 43.8526 116.056 43.8526C122.589 43.8526 127.522 38.9552 127.522 32.2324C127.522 25.4651 122.589 20.6122 116.056 20.6122Z" fill="#282828"/>
<path d="M152.157 21.28H145.936L140.736 35.9722L135.314 21.28H128.825L137.758 43.1847H143.669L152.157 21.28Z" fill="#282828"/>
<path d="M159.414 29.7392C159.547 27.7357 161.236 25.4206 164.302 25.4206C167.68 25.4206 169.102 27.5576 169.191 29.7392H159.414ZM169.769 35.438C169.058 37.3969 167.547 38.7771 164.791 38.7771C161.858 38.7771 159.414 36.6846 159.28 33.7907H174.924C174.924 33.7016 175.013 32.8112 175.013 31.9653C175.013 24.9308 170.969 20.6122 164.213 20.6122C158.614 20.6122 153.458 25.1534 153.458 32.1433C153.458 39.534 158.747 43.8526 164.747 43.8526C170.124 43.8526 173.591 40.6915 174.702 36.9072L169.769 35.438Z" fill="#282828"/>
<path d="M193 21.191C192.556 21.1465 192.111 21.102 191.622 21.102C189.756 21.102 186.734 21.6362 185.4 24.5301V21.28H179.667V43.1847H185.578V33.1673C185.578 28.448 188.2 26.9788 191.222 26.9788C191.756 26.9788 192.333 27.0233 193 27.1569V21.191Z" fill="#282828"/>
</svg>
